<?xml version="1.0" standalone="no"?>
<!DOCTYPE svg PUBLIC "-//W3C//DTD SVG 20010904//EN"
 "http://www.w3.org/TR/2001/REC-SVG-20010904/DTD/svg10.dtd">
<svg version="1.0" xmlns="http://www.w3.org/2000/svg"
 width="700.000000pt" height="700.000000pt" viewBox="0 0 700.000000 700.000000"
 preserveAspectRatio="xMidYMid meet">
<metadata>
Created by potrace 1.11, written by Peter Selinger 2001-2013
</metadata>
<g transform="translate(0.000000,700.000000) scale(0.100000,-0.100000)"
fill="#000000" stroke="none">
<path d="M2459 6406 c-2 -2 -33 -7 -69 -10 -133 -14 -183 -22 -305 -52 -517
-125 -967 -410 -1303 -824 -29 -36 -59 -72 -66 -81 -8 -9 -38 -54 -68 -100
-189 -291 -293 -548 -357 -879 -30 -156 -32 -178 -36 -395 -4 -192 3 -296 25
-415 5 -30 12 -73 16 -95 3 -22 8 -42 9 -46 2 -3 0 -23 -5 -45 -15 -68 -27
-149 -39 -254 -9 -78 -7 -467 3 -510 3 -14 7 -41 10 -60 11 -90 20 -134 51
-256 125 -489 424 -956 810 -1262 44 -35 87 -69 95 -75 50 -41 211 -139 314
-193 242 -126 509 -210 793 -250 111 -15 442 -18 1998 -18 1377 1 1773 4 1820
13 175 37 327 130 435 267 28 34 50 65 50 69 0 4 8 19 19 33 18 26 58 126 67
167 17 77 22 118 22 186 0 334 -234 632 -559 709 -82 19 -124 19 -1751 21
-1308 1 -1682 4 -1740 14 -355 63 -632 329 -714 685 -16 71 -23 265 -10 315 2
11 5 24 5 30 1 5 11 0 24 -13 108 -107 324 -222 510 -271 162 -44 200 -45
1172 -45 512 0 954 3 984 7 144 20 300 98 405 202 111 111 176 228 206 375 77
378 -146 741 -525 856 -56 17 -126 19 -1051 21 -566 1 -1005 -1 -1025 -7 -19
-5 -50 -11 -69 -13 -165 -21 -377 -115 -547 -243 -40 -30 -76 -53 -80 -52 -27
10 -20 242 11 376 13 59 85 221 106 242 3 3 17 23 31 45 35 53 123 143 190
193 111 82 246 140 374 161 49 8 565 12 1750 14 925 2 1685 6 1690 9 6 3 27 9
48 12 52 8 175 60 231 97 296 196 413 567 281 890 -26 65 -74 146 -112 189
-12 14 -30 34 -40 46 -79 89 -233 174 -374 205 -86 19 -145 19 -1898 19 -994
0 -1810 -2 -1812 -4z m3631 -421 c92 -28 173 -92 210 -165 25 -49 37 -125 29
-186 -14 -109 -90 -206 -195 -249 l-59 -24 -1755 -1 c-1656 -1 -1872 -2 -1945
-14 -16 -3 -52 -8 -80 -12 -166 -20 -458 -104 -625 -180 -190 -86 -414 -226
-562 -351 -126 -106 -293 -282 -367 -385 -19 -27 -36 -46 -39 -44 -2 3 1 27 7
53 6 26 13 57 16 68 13 59 39 145 69 223 230 603 738 1055 1365 1216 57 15
120 29 140 32 20 2 50 6 66 9 17 3 68 8 115 11 47 4 86 7 87 8 8 6 3504 -3
3523 -9z m-4405 -1352 c-153 -306 -175 -676 -60 -1002 15 -41 33 -87 40 -102
13 -24 11 -34 -20 -111 -69 -171 -90 -288 -90 -493 1 -215 36 -370 128 -558
26 -53 37 -85 29 -82 -34 13 -198 120 -276 180 -78 60 -237 211 -296 280 -153
180 -288 417 -366 641 l-38 112 38 113 c147 432 455 812 855 1052 52 32 95 57
97 57 1 0 -17 -39 -41 -87z m2971 -833 c189 -62 276 -266 189 -444 -43 -88
-117 -144 -218 -166 -57 -12 -1892 -10 -1935 2 -12 4 -50 14 -85 23 -131 33
-291 130 -396 238 l-44 45 62 61 c133 130 300 216 469 241 106 15 92 15 1028
14 697 -1 899 -4 930 -14z m-3946 -1178 c0 -28 249 -300 369 -405 347 -302
835 -518 1271 -562 30 -4 73 -9 95 -12 22 -4 850 -7 1840 -7 l1800 -1 49 -23
c28 -12 64 -34 82 -47 41 -31 91 -107 105 -159 25 -91 2 -206 -56 -282 -34
-44 -116 -97 -172 -111 -28 -7 -629 -10 -1850 -9 -1615 2 -1818 4 -1903 19
-569 96 -1058 418 -1365 897 -60 93 -143 261 -179 360 -15 41 -32 84 -37 95
-7 17 -16 49 -34 130 -3 11 -11 44 -18 73 -8 28 -10 52 -6 52 5 0 9 -4 9 -8z"/>
</g>
</svg>
